<svg xmlns="http://www.w3.org/2000/svg" width="960" height="540" viewBox="0 0 960 540">
  <defs>
    <linearGradient id="bg" x1="0" y1="0" x2="1" y2="1">
      <stop offset="0" stop-color="#0f2440"/>
      <stop offset="1" stop-color="#1e3a5f"/>
    </linearGradient>
  </defs>
  <rect width="960" height="540" fill="url(#bg)"/>
  <g opacity="0.14" stroke="#7fb3ff" stroke-width="1.5" fill="none">
    <path d="M0 470 Q 160 400 320 440 T 640 420 T 960 450"/>
    <path d="M0 500 Q 160 440 320 480 T 640 460 T 960 490"/>
  </g>
  <g transform="translate(480 215)">
    <rect x="-52" y="-40" rx="10" width="104" height="80" fill="#ffffff" opacity="0.94"/>
    <rect x="-52" y="-40" rx="10" width="104" height="80" fill="none" stroke="#ffffff" stroke-width="2.5" opacity="0.45"/>
    <path d="M-18 -26 L 28 0 L -18 26 Z" fill="#1e3a5f"/>
    <path d="M-18 -26 L -8 0 L -18 26 Z" fill="#1e3a5f" opacity="0.5"/>
    <path d="M6 -26 L 16 0 L 6 26 Z" fill="#1e3a5f" opacity="0.5"/>
  </g>
  <text x="480" y="345" text-anchor="middle" font-family="'Noto Sans CJK SC','Microsoft YaHei',sans-serif" font-size="30" fill="#ffffff" font-weight="700">配套动画位（T-302）</text>
  <text x="480" y="389" text-anchor="middle" font-family="'Noto Sans CJK SC','Microsoft YaHei',sans-serif" font-size="18" fill="#bcd4f5">if / elif / else 分支流程图 · for 遍历 · while 循环 · break / continue 对比</text>
  <rect x="330" y="421" rx="13" width="300" height="30" fill="#ffffff" opacity="0.14"/>
  <text x="480" y="441" text-anchor="middle" font-family="'Noto Sans CJK SC','Microsoft YaHei',sans-serif" font-size="15" fill="#dbe8fa">动画制作完成后将替换本占位图</text>
  <text x="48" y="50" font-family="'Noto Sans CJK SC','Microsoft YaHei',sans-serif" font-size="20" fill="#8fb8ea" font-weight="700">第 3 章 · 分支、循环与条件</text>
</svg>